<svg width="16" height="21" viewBox="0 0 16 21" fill="none" xmlns="http://www.w3.org/2000/svg">
<path fill-rule="evenodd" clip-rule="evenodd" d="M0 8.00049C0 3.58221 3.58172 0.000488281 8 0.000488281C12.4183 0.000488281 16 3.58221 16 8.00049C16 11.7569 14.1763 13.2265 12.4762 14.5965C11.3613 15.495 10.2994 16.3507 9.84 17.7805L9.33 19.3205C9.18701 19.7459 8.77815 20.0239 8.33 20.0005H7.77C7.32185 20.0239 6.91299 19.7459 6.77 19.3205L6.26 17.7805C5.78216 16.3549 4.70547 15.5 3.57743 14.6044C1.84899 13.2322 0 11.7642 0 8.00049ZM5 8.00049C5 9.65734 6.34315 11.0005 8 11.0005C8.79565 11.0005 9.55871 10.6844 10.1213 10.1218C10.6839 9.5592 11 8.79614 11 8.00049C11 6.34363 9.65685 5.00049 8 5.00049C6.34315 5.00049 5 6.34363 5 8.00049Z" fill="white"/>
</svg>
